<?xml version="1.0" encoding="utf-8"?>
<!-- Generator: Adobe Illustrator 23.0.3, SVG Export Plug-In . SVG Version: 6.00 Build 0)  -->
<svg version="1.1" id="katman_1" xmlns="http://www.w3.org/2000/svg" xmlns:xlink="http://www.w3.org/1999/xlink" x="0px" y="0px"
	 viewBox="0 0 500 463" style="enable-background:new 0 0 500 463;" xml:space="preserve">
<style type="text/css">
	.st0{fill:#FBFCF4;}
	.st1{fill:#DEDFD6;}
	.st2{fill:#3F4669;}
	.st3{fill:none;stroke:#2E2630;stroke-width:5;stroke-linecap:round;stroke-linejoin:round;stroke-miterlimit:10;}
	.st4{fill:#FE8788;}
	.st5{fill:#F9EEED;}
	.st6{fill:none;stroke:#2E2630;stroke-width:3;stroke-linecap:round;stroke-linejoin:round;stroke-miterlimit:10;}
	.st7{fill:none;stroke:#2E2630;stroke-width:5;stroke-linecap:round;stroke-miterlimit:10;}
	.st8{fill:none;stroke:#2E2630;stroke-width:2;stroke-miterlimit:10;}
	.st9{fill:#BF6566;}
	.st10{fill:#7FADBA;}
	.st11{fill:none;stroke:#2E2630;stroke-width:2;stroke-linecap:round;stroke-linejoin:round;stroke-miterlimit:10;}
	.st12{fill:#656B87;}
	.st13{fill:none;stroke:#202335;stroke-width:2;stroke-miterlimit:10;}
	.st14{fill:#24283D;}
	.st15{fill:#FFFFFF;}
	.st16{fill:#2E2630;}
</style>
<g>
	<path class="st0" d="M166.86,15.47C100.48,12.15,43.36,87.8,34.41,161.98s-47.16,125.99-24.14,188.65S166.28,495.6,345.35,444
		c141.95-40.91,167.92-102.74,143.58-207.08c-22.81-97.75-157.08-98.68-181.38-135.77C283.24,64.06,243.6,19.3,166.86,15.47z"/>
	<path class="st1" d="M97.89,377.73c13.29-1.8,38.8-3.28,51.02-3.28c12.22,0,65.39-0.74,71.86,3.33
		c6.47,4.08-10.06,11.48-13.65,12.97c-3.59,1.48-17.97,7.41-33.77,7.41s-61.58,2.96-84.68-2.96s-27.9-3.76-21.91-8.55
		S84.6,379.53,97.89,377.73z"/>
	<path class="st0" d="M356.94,5.51c-17.24,3.97-53.76,17.92-48.87,53.76c4.89,35.84,96.12,78.2,123.81,70.05
		c27.69-8.15,30.95-43.99,27.69-61.91s-29.08-44.4-45.61-53.76S374.18,1.55,356.94,5.51z"/>
	<path class="st2" d="M386.58,366.66H166.63c-6.6,0-12-5.4-12-12V75.85c0-6.6,5.4-12,12-12h219.96c6.6,0,12,5.4,12,12v278.82
		C398.58,361.26,393.18,366.66,386.58,366.66z"/>
	<path class="st3" d="M153.48,331.5c0,0-6.14,21.18-0.59,29.98c5.55,8.8,13.28,16.6,13.28,16.6"/>
	<line class="st3" x1="118.43" y1="329.46" x2="108.07" y2="384.72"/>
	<path class="st3" d="M126.61,204.85c0,0-43.4,42.71-63.36,35.45c-18.26-6.64-18.26-24.9-18.26-24.9"/>
	<path class="st4" d="M142.52,129.93c-24.47,18.11-73.87,97.49-67.68,185.68c2.05,29.47,137.32,36.31,146.84,18.32
		s29.74-108.43,2.35-180.51C227.57,127.13,148.84,118.73,142.52,129.93z"/>
	
		<ellipse transform="matrix(0.1689 -0.9856 0.9856 0.1689 -98.0543 352.7793)" class="st5" cx="160.16" cy="234.53" rx="12.22" ry="22.42"/>
	<path class="st6" d="M98.53,240.87c0,0-9.52-7.82-6.46,5.53c0,0-7.82,2.07-5.95,6.22c1.88,4.14,7.93,1.94,7.93,1.94"/>
	<path class="st5" d="M92.66,203.32l-0.01,0.03l0,0c0,0-5.65,13.89-7.05,20.69l0.01,0l-0.01,0.03c8.93,0.34,16.34-3.13,17.24-8.38
		C103.62,211.14,99.41,206.37,92.66,203.32z"/>
	<line class="st7" x1="139.65" y1="221.45" x2="155.38" y2="225.96"/>
	<line class="st7" x1="105.25" y1="211.71" x2="94.04" y2="207.96"/>
	<path class="st3" d="M236.31,215.14c0,0,34.2,36.97,27.47,57.11s-28.25,24.13-28.25,24.13"/>
	<path class="st4" d="M196,136.4c13.21-11.2,59.72,17.3,75.42,77.31c3.7,18.96-59.52,33-72.81,32.75
		C185.33,246.21,165.43,154.42,196,136.4z"/>
	<path class="st8" d="M268.41,210.09c-12.05-46.05-42.24-73.52-61.6-78.75c-22.2-11.06-62.84-12.94-67.31-5.03
		c-24.47,18.11-73.87,97.49-67.68,185.68c2.05,29.47,137.32,36.31,146.84,18.32c5.91-11.16,15.93-50.21,16.15-95.46
		C253.24,228.95,270.39,220.23,268.41,210.09z"/>
	<g>
		<path class="st9" d="M201.32,140.87c-0.26,1.91-4.19,6.06-13.51,5.57c-4.15-0.22-11.49-0.63-16.47-1.35
			c-7.92-1.15-16.76-3.53-21.83-5.69c-5.26-2.24-6-5.78-5.81-7.19c0.38-2.76,12.95-2.92,29.08-0.58
			C188.92,133.98,201.69,138.11,201.32,140.87z"/>
		<path class="st10" d="M195.05,138.48c0,0-7.3,0.21-11-2.63c0,0-1.66,3.24-1.17,6.13c0.49,2.89,11.42,3.89,11.89,3.14
			C195.24,144.37,195.56,140.43,195.05,138.48z"/>
		<path class="st11" d="M193.86,137.03c0,0-7.3,0.21-11-2.63c0,0-1.66,3.24-1.17,6.13c0.49,2.89,11.42,3.89,11.89,3.14
			C194.04,142.92,194.36,138.98,193.86,137.03z"/>
		<path class="st8" d="M198.84,138.78c-0.26,1.91-4.19,6.06-13.51,5.57c-4.15-0.22-11.49-0.63-16.47-1.35
			c-7.92-1.15-16.76-3.53-21.83-5.69c-5.26-2.24-6-5.78-5.81-7.19c0.38-2.76,12.95-2.92,29.08-0.58
			C186.44,131.88,199.22,136.02,198.84,138.78z"/>
	</g>
	<path class="st12" d="M428.84,366.66L265.8,398.99c-8.56,0-15.56-8.8-15.56-19.55V37.22c0-10.75,7-19.55,15.56-19.55l163.03,46.18
		c8.56,0,15.56,8.8,15.56,19.55v263.72C444.4,357.87,437.39,366.66,428.84,366.66z"/>
	<path class="st13" d="M436.17,363l-163.03,32.33c-8.56,0-15.56-8.8-15.56-19.55V33.55c0-10.75,7-19.55,15.56-19.55l163.03,46.18
		c8.56,0,15.56,8.8,15.56,19.55v263.72C451.73,354.2,444.73,363,436.17,363z"/>
	<g>
		<circle class="st14" cx="297.95" cy="237.76" r="18.79"/>
		<path class="st15" d="M288.59,237.63c3.46-0.72,3.8-4.9,5.96-6.64c2.16-1.74,6.12-1.03,6.93-4.47c0.86-3.61-2.56-4.78-4.83-4.83
			c-7.4,0-12.78,5.72-12.78,12.78C283.87,234.46,284.18,238.55,288.59,237.63z"/>
		
			<ellipse transform="matrix(0.9865 -0.1636 0.1636 0.9865 -36.0211 50.1648)" class="st15" cx="286.53" cy="243.76" rx="3.19" ry="3.46"/>
	</g>
	<g>
		<path class="st16" d="M83.61,196.19c0-0.35,0.01-0.74-0.27-1.02c-0.28-0.28-0.9-0.03-1.21,0.11l-9,4.23
			c-0.14,0.07-0.24,0.19-0.3,0.32c-0.01,0.01-0.01,0.02-0.02,0.03c-0.01,0.02-0.01,0.03-0.01,0.05c-0.02,0.06-0.04,0.12-0.04,0.19
			v7.97c-0.58,0.01-1.2,0.17-1.76,0.51c-1.47,0.88-2.06,2.59-1.33,3.82s2.52,1.5,3.99,0.62c1.1-0.66,1.71-1.78,1.64-2.82
			c0-0.01,0.01-0.02,0.01-0.03v-8.87l5.76-2.7v5.56c-0.58,0.01-1.2,0.17-1.76,0.51c-1.47,0.88-2.06,2.59-1.33,3.82
			c0.74,1.23,2.52,1.5,3.99,0.62c1.1-0.66,1.71-1.78,1.64-2.82c0-0.01,0.01-0.02,0.01-0.03V196.19z"/>
		<path class="st16" d="M72.79,188.59c-1.95-1.21-1.19-3.14-1.19-3.14c0,0-0.01,0.01-0.01,0.01l0.05-0.16
			c0.1-0.33-0.09-0.69-0.42-0.79l-1.23-0.38c-0.33-0.1-0.69,0.09-0.79,0.42l-2.33,7.62c-0.56-0.16-1.19-0.19-1.84-0.03
			c-1.66,0.41-2.73,1.87-2.39,3.26c0.35,1.39,1.97,2.18,3.64,1.76c1.24-0.31,2.15-1.2,2.39-2.21c0-0.01,0.01-0.02,0.02-0.03
			l1.8-5.87c0.35,0.39,0.84,0.6,1.8,0.79c0.86,0.17,1.08,0.98,1.25,1.38c0.08,0.19,0.27,0.18,0.35,0.1
			C73.96,191.26,74.74,189.81,72.79,188.59z"/>
	</g>
</g>
</svg>
