<?xml version="1.0" encoding="utf-8"?>
<!-- Generator: Adobe Illustrator 23.0.3, SVG Export Plug-In . SVG Version: 6.00 Build 0)  -->
<svg version="1.1" id="katman_1" xmlns="http://www.w3.org/2000/svg" xmlns:xlink="http://www.w3.org/1999/xlink" x="0px" y="0px"
	 viewBox="0 0 494.47 457.99" style="enable-background:new 0 0 494.47 457.99;" xml:space="preserve">
<style type="text/css">
	.st0{fill:#FBFCF4;}
	.st1{fill:#DEDFD6;}
	.st2{fill:none;stroke:#2E2630;stroke-width:3;stroke-linecap:round;stroke-linejoin:round;stroke-miterlimit:10;}
	.st3{fill:#FE8788;}
	.st4{fill:none;stroke:#2E2630;stroke-miterlimit:10;}
	.st5{fill:#BF6566;}
	.st6{fill:#F0EDCA;}
	.st7{fill:none;stroke:#2E2630;stroke-linecap:round;stroke-miterlimit:10;}
	.st8{fill:#402222;}
	.st9{fill:#7FADBA;}
</style>
<g>
	<path class="st0" d="M165.11,15.91c-65.58-3.28-122,71.46-130.85,144.73S-12.33,285.1,10.42,347.01s154.11,143.21,331.01,92.23
		c140.23-40.41,165.88-101.49,141.83-204.56c-22.53-96.56-155.18-97.48-179.18-134.12C280.07,63.92,240.91,19.7,165.11,15.91z"/>
	<path class="st1" d="M191.17,362.68c16.74-1.78,48.88-3.24,64.26-3.24s82.38-0.73,90.52,3.29s-12.67,11.35-17.2,12.81
		c-4.53,1.46-22.63,7.32-42.55,7.32c-19.92,0-77.57,2.93-106.68-2.93s-35.14-3.71-27.6-8.44S174.43,364.46,191.17,362.68z"/>
	<path class="st0" d="M354.51,4.44c-17.03,3.92-53.11,17.7-48.28,53.11c4.83,35.4,94.95,77.25,122.31,69.2s30.58-43.45,27.36-61.15
		s-28.73-43.86-45.06-53.11S371.55,0.52,354.51,4.44z"/>
	<path class="st2" d="M152.45,186.28c0,0-32.59,38.32-31.99,59.29s2.5,38.47,2.5,38.47"/>
	<path class="st2" d="M345.26,186.28c0,0,32.59,38.32,31.99,59.29s-2.5,38.47-2.5,38.47"/>
	<line class="st2" x1="226.98" y1="312.72" x2="226.98" y2="369.75"/>
	<line class="st2" x1="280.84" y1="312.72" x2="280.84" y2="369.75"/>
	<path class="st3" d="M248.4,95.27c-53.1,2.61-80.9,12.99-96.1,33.39c-15.2,20.4-24.77,51.39-24.77,51.39s4.22,14.57,32.1,24.05
		c0,0-13.51,82.35-4.22,101.3s50.54,24.05,109.31,20.4c58.77-3.64,83.26-17.49,83.26-17.49s14.57,1.24-3.2-109.78
		c0,0,22.63-3.91,24.32-12.65c1.69-8.74-7.78-44.86-28.05-62.35C320.77,106.03,301.5,92.65,248.4,95.27z"/>
	<path class="st4" d="M243.84,93.25c-53.1,2.61-80.9,12.99-96.1,33.39c-15.2,20.4-24.77,51.39-24.77,51.39s4.22,14.57,32.1,24.05
		c0,0-13.51,82.35-4.22,101.3s50.54,24.05,109.31,20.4c58.77-3.64,83.26-17.49,83.26-17.49s14.57,1.24-3.2-109.78
		c0,0,22.63-3.91,24.32-12.65s-7.78-44.86-28.05-62.35C316.2,104.02,296.94,90.64,243.84,93.25z"/>
	<path class="st5" d="M299.28,106.38c0.1,2.91-4.92,10.09-19.56,11.75c-6.52,0.74-18.06,2.02-26,2.22
		c-12.64,0.32-27.03-0.95-35.5-2.86c-8.79-1.98-10.88-7.06-10.95-9.19c-0.15-4.2,19.39-7.68,45.13-8.33S299.13,102.17,299.28,106.38
		z"/>
	<path class="st4" d="M294.67,104.35c0.1,2.91-4.92,10.09-19.56,11.75c-6.52,0.74-18.06,2.02-26,2.22
		c-12.64,0.32-27.03-0.95-35.5-2.86c-8.79-1.98-10.88-7.06-10.95-9.19c-0.15-4.2,19.39-7.68,45.13-8.33S294.52,100.15,294.67,104.35
		z"/>
	<ellipse class="st6" cx="202.46" cy="217.67" rx="22.14" ry="12.07"/>
	<ellipse class="st6" cx="310.41" cy="217.67" rx="22.14" ry="12.07"/>
	<path class="st7" d="M247.86,240.75c0,0,0,9.66,9.14,9.66c9.14,0,9.14-9.66,9.14-9.66"/>
	<g>
		<circle class="st8" cx="210.97" cy="205.6" r="8.27"/>
		<polygon class="st3" points="202.31,198.79 210.31,204.13 200.41,204.13 		"/>
	</g>
	<g>
		<circle class="st8" cx="301.75" cy="205.6" r="8.27"/>
		<polygon class="st3" points="293.1,198.79 301.1,204.13 291.19,204.13 		"/>
	</g>
	<path class="st9" d="M238.14,104.29c0,0,17.29,0.93,26.78-1.49c0,0,3.16,3.35,1.3,6.14c-1.86,2.79-28.08,2.69-29.01,1.9
		C236.28,110.05,236.47,106.15,238.14,104.29z"/>
	<path class="st4" d="M237.24,103.1c0,0,17.29,0.93,26.78-1.49c0,0,3.16,3.35,1.3,6.14c-1.86,2.79-28.08,2.69-29.01,1.9
		C235.38,108.86,235.56,104.96,237.24,103.1z"/>
</g>
</svg>
