<?xml version="1.0" encoding="utf-8"?>
<!-- Generator: Adobe Illustrator 23.0.3, SVG Export Plug-In . SVG Version: 6.00 Build 0)  -->
<svg version="1.1" id="katman_1" xmlns="http://www.w3.org/2000/svg" xmlns:xlink="http://www.w3.org/1999/xlink" x="0px" y="0px"
	 viewBox="0 0 500 500" style="enable-background:new 0 0 500 500;" xml:space="preserve">
<style type="text/css">
	.st0{fill:#FBFCF4;}
	.st1{fill:#DEDFD6;}
	.st2{fill:none;stroke:#2E2630;stroke-width:3;stroke-linecap:round;stroke-linejoin:round;stroke-miterlimit:10;}
	.st3{fill:#FE8788;}
	.st4{fill:none;stroke:#2E2630;stroke-miterlimit:10;}
	.st5{fill:#BF6566;}
	.st6{fill:#F0EDCA;}
	.st7{fill:none;stroke:#2E2630;stroke-linecap:round;stroke-miterlimit:10;}
	.st8{fill:#402222;}
	.st9{fill:#7FADBA;}
</style>
<path class="st0" d="M192.97,117.13c-40.75-2.04-75.81,44.4-81.31,89.94s-28.95,77.34-14.82,115.8s95.76,88.99,205.68,57.31
	c87.13-25.11,103.08-63.07,88.13-127.11c-14-60-96.42-60.57-111.34-83.34C264.41,146.96,240.07,119.49,192.97,117.13z"/>
<path class="st1" d="M209.16,332.61c10.4-1.11,30.37-2.01,39.93-2.01s51.19-0.46,56.25,2.05c5.06,2.5-7.88,7.05-10.69,7.96
	s-14.06,4.55-26.44,4.55s-48.2,1.82-66.29-1.82c-18.09-3.64-21.84-2.31-17.15-5.25C189.47,335.14,198.76,333.71,209.16,332.61z"/>
<path class="st0" d="M310.66,110c-10.58,2.43-33,11-30,33s59,48,76,43s19-27,17-38s-17.85-27.26-28-33
	C335.51,109.26,321.25,107.57,310.66,110z"/>
<path class="st2" d="M185.1,223c0,0-20.25,23.81-19.87,36.84c0.38,13.03,1.56,23.91,1.56,23.91"/>
<path class="st2" d="M304.91,223c0,0,20.25,23.81,19.87,36.84s-1.56,23.91-1.56,23.91"/>
<line class="st2" x1="231.41" y1="301.56" x2="231.41" y2="337"/>
<line class="st2" x1="264.88" y1="301.56" x2="264.88" y2="337"/>
<path class="st3" d="M244.72,166.44c-33,1.62-50.27,8.07-59.72,20.75s-15.39,31.93-15.39,31.93s2.62,9.06,19.94,14.94
	c0,0-8.4,51.17-2.62,62.94c5.77,11.77,31.4,14.94,67.92,12.68s51.74-10.87,51.74-10.87s9.05,0.77-1.99-68.22
	c0,0,14.06-2.43,15.11-7.86c1.05-5.43-4.83-27.88-17.43-38.74C289.69,173.13,277.72,164.82,244.72,166.44z"/>
<path class="st4" d="M241.89,165.19c-33,1.62-50.27,8.07-59.72,20.75c-9.45,12.68-15.39,31.93-15.39,31.93s2.62,9.06,19.94,14.94
	c0,0-8.4,51.17-2.62,62.94c5.77,11.77,31.4,14.94,67.92,12.68s51.74-10.87,51.74-10.87s9.05,0.77-1.99-68.22
	c0,0,14.06-2.43,15.11-7.86c1.05-5.43-4.83-27.88-17.43-38.74C286.86,171.88,274.89,163.57,241.89,165.19z"/>
<path class="st5" d="M276.34,173.35c0.06,1.81-3.06,6.27-12.15,7.3c-4.05,0.46-11.22,1.25-16.15,1.38
	c-7.85,0.2-16.8-0.59-22.06-1.78c-5.46-1.23-6.76-4.38-6.81-5.71c-0.09-2.61,12.05-4.77,28.04-5.18S276.25,170.74,276.34,173.35z"/>
<path class="st4" d="M273.48,172.09c0.06,1.81-3.06,6.27-12.15,7.3c-4.05,0.46-11.22,1.25-16.15,1.38
	c-7.85,0.2-16.8-0.59-22.06-1.78c-5.46-1.23-6.76-4.38-6.81-5.71c-0.09-2.61,12.05-4.77,28.04-5.18
	C260.34,167.69,273.39,169.48,273.48,172.09z"/>
<ellipse class="st6" cx="216.18" cy="242.5" rx="13.76" ry="7.5"/>
<ellipse class="st6" cx="283.26" cy="242.5" rx="13.76" ry="7.5"/>
<path class="st7" d="M244.39,256.84c0,0,0,6,5.68,6c5.68,0,5.68-6,5.68-6"/>
<g>
	<circle class="st8" cx="221.46" cy="235" r="5.14"/>
	<polygon class="st3" points="216.09,230.77 221.06,234.09 214.9,234.09 	"/>
</g>
<g>
	<circle class="st8" cx="277.88" cy="235" r="5.14"/>
	<polygon class="st3" points="272.5,230.77 277.47,234.09 271.31,234.09 	"/>
</g>
<path class="st9" d="M238.35,172.05c0,0,10.75,0.58,16.64-0.92c0,0,1.96,2.08,0.81,3.81s-17.45,1.67-18.03,1.18
	C237.2,175.63,237.31,173.21,238.35,172.05z"/>
<path class="st4" d="M237.79,171.31c0,0,10.75,0.58,16.64-0.92c0,0,1.96,2.08,0.81,3.81s-17.45,1.67-18.03,1.18
	S236.75,172.46,237.79,171.31z"/>
</svg>
